<svg width="76" height="76" viewBox="0 0 76 76" fill="none" xmlns="http://www.w3.org/2000/svg">
<path d="M22.2499 0.500488H53.7499C65.7499 0.500488 75.4999 10.2505 75.4999 22.2505V53.7505C75.4999 59.519 73.2084 65.0512 69.1295 69.1301C65.0505 73.209 59.5183 75.5005 53.7499 75.5005H22.2499C10.2499 75.5005 0.499878 65.7505 0.499878 53.7505V22.2505C0.499878 16.482 2.79139 10.9498 6.87031 6.87092C10.9492 2.792 16.4814 0.500488 22.2499 0.500488ZM21.4999 8.00049C17.9195 8.00049 14.4857 9.42281 11.9539 11.9545C9.4222 14.4863 7.99988 17.9201 7.99988 21.5005V54.5005C7.99988 61.963 14.0374 68.0005 21.4999 68.0005H54.4999C58.0803 68.0005 61.5141 66.5782 64.0458 64.0464C66.5776 61.5147 67.9999 58.0809 67.9999 54.5005V21.5005C67.9999 14.038 61.9624 8.00049 54.4999 8.00049H21.4999ZM57.6874 13.6255C58.9306 13.6255 60.1229 14.1194 61.002 14.9984C61.881 15.8775 62.3749 17.0698 62.3749 18.313C62.3749 19.5562 61.881 20.7485 61.002 21.6276C60.1229 22.5066 58.9306 23.0005 57.6874 23.0005C56.4442 23.0005 55.2519 22.5066 54.3728 21.6276C53.4937 20.7485 52.9999 19.5562 52.9999 18.313C52.9999 17.0698 53.4937 15.8775 54.3728 14.9984C55.2519 14.1194 56.4442 13.6255 57.6874 13.6255ZM37.9999 19.2505C42.9727 19.2505 47.7418 21.2259 51.2581 24.7422C54.7744 28.2585 56.7499 33.0277 56.7499 38.0005C56.7499 42.9733 54.7744 47.7424 51.2581 51.2587C47.7418 54.7751 42.9727 56.7505 37.9999 56.7505C33.0271 56.7505 28.2579 54.7751 24.7416 51.2587C21.2253 47.7424 19.2499 42.9733 19.2499 38.0005C19.2499 33.0277 21.2253 28.2585 24.7416 24.7422C28.2579 21.2259 33.0271 19.2505 37.9999 19.2505ZM37.9999 26.7505C35.0162 26.7505 32.1547 27.9358 30.0449 30.0455C27.9351 32.1553 26.7499 35.0168 26.7499 38.0005C26.7499 40.9842 27.9351 43.8457 30.0449 45.9554C32.1547 48.0652 35.0162 49.2505 37.9999 49.2505C40.9836 49.2505 43.8451 48.0652 45.9548 45.9554C48.0646 43.8457 49.2499 40.9842 49.2499 38.0005C49.2499 35.0168 48.0646 32.1553 45.9548 30.0455C43.8451 27.9358 40.9836 26.7505 37.9999 26.7505Z" fill="black"/>
</svg>
