<svg width="76" height="76" viewBox="0 0 76 76" fill="none" xmlns="http://www.w3.org/2000/svg">
<path d="M55.8125 45.35C56.75 45.8375 57.35 46.1 57.5375 46.475C57.7625 46.8875 57.6875 48.7625 56.75 50.9C56 53 52.1 55.025 50.375 55.1C48.65 55.175 48.6125 56.45 39.275 52.3625C29.9375 48.275 24.3125 38.3 23.8625 37.6625C23.4125 37.025 20.2625 32.4875 20.4125 27.875C20.6 23.3 23 21.125 23.975 20.225C24.875 19.25 25.8875 19.1375 26.525 19.25H28.2875C28.85 19.25 29.6375 19.025 30.35 20.9375L32.9375 27.95C33.1625 28.4375 33.3125 29 32.975 29.6L31.9625 31.1375L30.5 32.7125C30.05 33.1625 29.525 33.65 30.05 34.5875C30.5 35.5625 32.375 38.675 35 41.2625C38.4125 44.5625 41.4125 45.65 42.3125 46.1375C43.2125 46.6625 43.775 46.5875 44.3375 45.9875L47.375 42.4625C48.0875 41.525 48.6875 41.75 49.55 42.05L55.8125 45.35ZM38 0.5C42.9246 0.5 47.8009 1.46997 52.3507 3.35452C56.9004 5.23907 61.0343 8.0013 64.5165 11.4835C67.9987 14.9657 70.761 19.0997 72.6455 23.6494C74.5301 28.1991 75.5 33.0754 75.5 38C75.5 47.9456 71.5491 57.4839 64.5165 64.5165C57.4839 71.5491 47.9456 75.5 38 75.5C30.6125 75.5 23.75 73.3625 17.9375 69.6875L0.500024 75.5L6.31252 58.0625C2.50817 52.0631 0.491958 45.1039 0.500024 38C0.500024 28.0544 4.45091 18.5161 11.4835 11.4835C18.5161 4.45088 28.0544 0.5 38 0.5ZM38 8C30.0435 8 22.4129 11.1607 16.7868 16.7868C11.1607 22.4129 8.00002 30.0435 8.00002 38C8.00002 44.45 10.025 50.4125 13.475 55.2875L9.87502 66.125L20.7125 62.525C25.7667 66.1008 31.8088 68.0143 38 68C45.9565 68 53.5871 64.8393 59.2132 59.2132C64.8393 53.5871 68 45.9565 68 38C68 30.0435 64.8393 22.4129 59.2132 16.7868C53.5871 11.1607 45.9565 8 38 8Z" fill="black"/>
</svg>
